<?xml version="1.0" standalone="no"?>
<!DOCTYPE svg PUBLIC "-//W3C//DTD SVG 20010904//EN"
 "http://www.w3.org/TR/2001/REC-SVG-20010904/DTD/svg10.dtd">
<svg version="1.0" xmlns="http://www.w3.org/2000/svg"
 width="1112.000000pt" height="1032.000000pt" viewBox="0 0 1112.000000 1032.000000"
 preserveAspectRatio="xMidYMid meet">

<g transform="translate(0.000000,1032.000000) scale(0.100000,-0.100000)"
fill="#000000" stroke="none">
<path d="M5527 9849 c-51 -12 -149 -61 -208 -104 -76 -56 -194 -189 -269 -301
-210 -320 -407 -868 -477 -1332 l-17 -113 -40 -27 c-45 -31 -82 -88 -91 -143
-8 -45 23 -124 63 -162 27 -26 99 -57 131 -57 62 0 147 53 175 109 39 77 26
159 -36 224 -46 48 -47 63 -18 234 76 443 270 955 468 1232 168 235 329 329
493 286 114 -29 214 -103 326 -242 250 -311 477 -838 567 -1322 24 -126 22
-146 -18 -182 -72 -63 -85 -170 -30 -248 33 -46 111 -91 159 -91 49 0 133 47
162 92 34 51 42 131 18 181 -16 34 -78 99 -103 108 -6 2 -18 49 -27 104 -53
311 -181 700 -330 1000 -277 557 -596 825 -898 754z"/>
<path d="M2045 8233 c-94 -39 -161 -110 -196 -207 -23 -68 -24 -108 -2 -172
32 -97 87 -160 179 -205 39 -19 65 -24 124 -24 66 0 82 4 138 34 235 127 229
439 -11 563 -57 29 -176 35 -232 11z"/>
<path d="M1332 7089 c-36 -18 -74 -46 -93 -70 -36 -45 -69 -126 -69 -168 0
-51 33 -131 72 -176 131 -149 357 -117 445 63 49 101 33 199 -50 289 -87 95
-195 117 -305 62z"/>
<path d="M6648 6736 c-76 -27 -24 28 -708 -749 -212 -240 -396 -458 -410 -484
-21 -39 -25 -61 -25 -128 0 -140 -29 -109 648 -704 329 -289 619 -537 645
-551 39 -20 61 -25 127 -25 69 1 87 4 133 30 97 53 146 137 145 250 0 77 -16
123 -60 175 -15 18 -216 199 -446 402 -230 203 -432 388 -449 411 -17 23 -42
67 -56 97 -24 49 -26 67 -27 171 0 113 1 116 37 190 46 93 122 168 215 212 64
30 74 32 183 32 108 0 119 -2 180 -31 68 -32 76 -39 519 -434 409 -364 437
-387 493 -406 101 -33 239 2 302 77 90 106 100 255 26 358 -15 20 -232 217
-481 436 -250 220 -515 453 -589 518 -74 66 -157 130 -185 143 -58 27 -156 32
-217 10z m181 -7 l31 -11 0 -352 c0 -268 3 -355 13 -365 6 -8 -6 -2 -28 12
-22 14 -59 33 -82 42 l-43 17 0 334 0 334 39 0 c21 0 52 -5 70 -11z m19 -1927
c21 -18 31 -31 25 -27 -10 5 -13 -64 -13 -330 l0 -336 -22 7 c-40 12 -72 32
-114 71 -22 21 -32 32 -22 24 17 -14 18 -1 18 339 0 322 -2 355 -17 374 -17
19 66 -50 145 -122z"/>
<path d="M1150 6269 c-70 -14 -150 -41 -145 -49 3 -4 -1 -7 -8 -7 -23 2 -128
-57 -123 -70 3 -7 -1 -10 -10 -6 -7 3 -14 0 -14 -6 0 -6 -6 -11 -14 -11 -33 0
-201 -218 -210 -274 -1 -6 -8 -21 -15 -34 -6 -12 -9 -32 -5 -44 4 -13 2 -18
-4 -14 -17 10 -35 -128 -27 -208 15 -158 88 -310 206 -428 43 -44 59 -54 68
-45 9 9 11 8 6 -5 -5 -11 2 -22 22 -34 15 -9 39 -24 53 -34 42 -28 141 -63
176 -63 18 0 31 -4 28 -9 -3 -4 5 -8 18 -8 13 -1 56 -3 96 -6 44 -4 72 -2 72
4 0 6 10 8 22 4 16 -4 19 -2 13 9 -6 11 -5 11 5 2 9 -8 29 -6 84 9 39 10 73
24 74 29 2 5 12 9 23 9 10 0 19 5 19 12 0 6 3 9 6 5 15 -15 162 101 217 173
53 68 91 130 80 130 -4 0 -3 4 4 8 21 13 65 165 70 243 5 71 -7 182 -26 232
-5 12 -9 25 -10 30 0 4 -8 22 -18 40 -9 17 -18 37 -19 44 -4 24 -61 98 -73 95
-7 -1 -10 2 -7 7 7 11 -33 61 -83 106 -34 30 -126 95 -136 96 -2 0 -29 11 -59
25 -100 46 -249 64 -356 43z m-533 -561 c-3 -8 -6 -5 -6 6 -1 11 2 17 5 13 3
-3 4 -12 1 -19z"/>
<path d="M6535 5911 c-136 -34 -237 -173 -222 -304 14 -116 22 -125 471 -520
226 -201 431 -384 454 -408 24 -24 60 -77 80 -118 36 -73 37 -78 37 -185 0
-104 -2 -115 -32 -179 -88 -186 -280 -290 -474 -257 -135 23 -120 11 -844 656
-100 89 -199 173 -221 187 -114 73 -264 51 -359 -55 -56 -63 -79 -130 -73
-213 10 -120 0 -110 655 -686 327 -288 616 -535 641 -548 68 -35 152 -39 225
-11 45 17 73 37 122 89 145 152 979 1109 998 1146 32 58 31 193 -1 252 -29 55
-52 76 -567 528 -236 208 -476 419 -533 469 -131 115 -171 142 -233 155 -56
12 -80 12 -124 2z"/>
<path d="M5150 5118 c-95 -49 -134 -152 -96 -253 76 -198 379 -143 379 69 0
152 -152 250 -283 184z m255 -116 c-10 -9 -327 -132 -339 -132 -3 0 -6 6 -6
14 0 8 57 35 152 71 84 31 159 60 168 65 18 10 39 -5 25 -18z"/>
<path d="M5822 2930 c4 -309 -2 -294 121 -304 l77 -7 0 26 c0 20 -5 25 -26 25
-14 0 -34 5 -45 10 -18 10 -19 24 -19 254 l0 243 -37 7 c-81 13 -74 37 -71
-254z m98 -24 c1 -142 -1 -261 -4 -264 -3 -3 -6 115 -6 263 0 148 2 266 5 264
2 -3 5 -121 5 -263z"/>
<path d="M7514 3170 c-51 -21 -54 -36 -54 -308 l0 -253 58 3 57 3 3 149 3 149
61 -7 c33 -3 74 -6 89 -6 l29 0 0 -145 0 -145 55 0 55 0 0 145 0 145 50 0 c49
0 50 1 50 30 l0 30 -195 0 -196 0 3 78 3 77 45 5 c40 4 45 8 45 30 0 24 -3 25
-70 27 -39 1 -80 -2 -91 -7z"/>
<path d="M5570 2886 l0 -263 75 0 75 0 0 262 0 262 -75 0 -75 1 0 -262z m77
-129 c-1 -67 -3 -9 -3 128 0 138 2 192 3 122 2 -71 2 -183 0 -250z"/>
<path d="M6497 2972 c-15 -2 -32 -13 -38 -24 -13 -24 -109 -307 -109 -321 0
-4 12 -7 27 -5 21 2 29 10 35 36 8 32 9 32 68 32 59 0 60 -1 74 -35 15 -34 17
-35 70 -35 l55 0 -57 167 c-60 175 -72 193 -125 185z m22 -74 c-1 -47 -3 -57
-9 -38 -12 36 -12 100 0 100 6 0 10 -27 9 -62z m-9 -84 c11 -36 20 -70 20 -75
0 -5 -20 -9 -45 -9 -25 0 -45 3 -45 8 0 20 35 142 42 142 4 0 16 -30 28 -66z
m5 -104 c3 -5 1 -10 -4 -10 -6 0 -11 5 -11 10 0 6 2 10 4 10 3 0 8 -4 11 -10z"/>
<path d="M6081 2823 l70 -147 -36 -78 c-19 -42 -35 -80 -35 -83 0 -3 11 -5 26
-5 44 0 57 51 55 215 -1 107 1 136 10 121 7 -11 10 -56 7 -121 -2 -57 -2 -103
-1 -101 4 3 153 339 153 343 0 2 -12 3 -27 1 -25 -3 -32 -13 -59 -81 -17 -43
-34 -80 -36 -83 -3 -3 -21 32 -40 78 l-35 83 -61 3 -61 3 70 -148z"/>
<path d="M6823 2961 c-71 -9 -103 -39 -103 -98 0 -55 21 -77 95 -98 61 -18 82
-42 65 -75 -9 -17 -21 -20 -80 -20 -69 0 -70 0 -70 -26 0 -26 1 -27 46 -20 26
3 67 6 91 6 38 0 50 5 79 34 28 28 34 42 34 76 0 67 -8 74 -128 121 -27 11
-39 36 -24 51 6 6 36 10 67 9 53 -1 55 0 55 24 0 23 -4 25 -37 24 -21 -1 -61
-5 -90 -8z m37 -15 c0 -3 -4 -8 -10 -11 -5 -3 -10 -1 -10 4 0 6 5 11 10 11 6
0 10 -2 10 -4z m0 -142 c0 -19 -4 -34 -10 -34 -5 0 -10 18 -10 41 0 24 4 38
10 34 6 -3 10 -22 10 -41z m0 -154 c0 -5 -4 -10 -10 -10 -5 0 -10 5 -10 10 0
6 5 10 10 10 6 0 10 -4 10 -10z"/>
<path d="M7100 2947 c-52 -34 -72 -78 -72 -152 0 -50 5 -73 25 -107 48 -82
152 -112 242 -68 117 56 117 257 1 329 -48 30 -150 29 -196 -2z m142 -54 c15
-38 15 -192 0 -220 -8 -15 -22 -23 -38 -23 -38 0 -57 55 -52 150 5 89 19 120
54 120 17 0 28 -8 36 -27z"/>
<path d="M2820 1194 c-103 -20 -190 -65 -250 -130 -175 -190 -139 -518 72
-654 74 -49 111 -60 210 -67 126 -9 236 28 318 108 38 38 82 105 95 147 6 22
5 22 -91 22 l-97 0 -35 -40 c-40 -47 -71 -65 -129 -74 -69 -10 -140 11 -189
56 -59 54 -78 113 -72 228 4 76 8 95 34 137 51 83 144 117 252 93 43 -9 64
-21 97 -56 l43 -44 96 0 c53 0 96 2 96 5 0 14 -52 106 -76 134 -37 45 -105 89
-170 111 -58 20 -160 32 -204 24z"/>
<path d="M3851 1184 c-82 -22 -167 -72 -216 -126 -180 -200 -135 -512 93 -657
102 -64 257 -81 368 -40 232 86 344 322 263 556 -46 134 -154 228 -306 268
-70 18 -131 18 -202 -1z m224 -198 c66 -39 97 -99 103 -197 10 -168 -74 -269
-223 -269 -149 0 -233 101 -223 269 7 118 48 179 146 217 55 21 142 12 197
-20z"/>
<path d="M9188 1184 c-234 -56 -368 -275 -317 -516 33 -155 155 -279 313 -319
28 -7 81 -10 131 -6 149 9 274 87 335 211 l31 61 -98 3 -98 3 -29 -36 c-43
-54 -98 -79 -176 -78 -118 0 -197 65 -221 181 -14 70 -5 171 21 222 67 132
255 160 357 54 l43 -44 95 0 c59 0 95 4 95 10 0 24 -51 108 -89 146 -53 53
-121 90 -202 109 -77 18 -116 18 -191 -1z"/>
<path d="M856 1174 c-8 -20 -8 -782 0 -812 l6 -22 252 2 251 3 0 70 0 70 -162
3 -163 2 0 105 0 104 143 3 142 3 3 67 3 67 -143 3 -143 3 -3 97 -3 98 163 2
163 3 0 70 0 70 -251 3 c-223 2 -252 1 -258 -14z"/>
<path d="M4657 1183 c-4 -3 -7 -195 -7 -425 l0 -418 95 0 95 0 0 239 c0 132 4
242 9 245 21 13 45 -35 124 -249 l85 -230 74 -3 74 -3 83 223 c46 123 91 231
102 241 18 17 19 16 25 -9 4 -14 7 -121 8 -238 l1 -211 93 -3 92 -3 0 426 0
426 -112 -3 -112 -3 -116 -290 c-99 -247 -120 -290 -138 -293 -12 -2 -22 2
-22 8 0 6 -52 139 -116 296 l-117 284 -107 0 c-59 0 -110 -3 -113 -7z"/>
<path d="M5915 1177 c-3 -6 -4 -197 -3 -422 l3 -410 93 -3 92 -3 0 241 c0 241
0 241 21 238 19 -3 35 -39 109 -238 l88 -235 74 -3 75 -3 89 243 c120 328 123
328 126 6 l3 -243 93 -3 92 -3 0 426 0 426 -112 -3 -112 -3 -18 -45 c-9 -25
-62 -155 -116 -290 -116 -285 -121 -291 -164 -182 -14 38 -68 171 -118 296
l-92 226 -109 0 c-79 0 -111 -4 -114 -13z"/>
<path d="M7177 1183 c-4 -3 -7 -195 -7 -425 l0 -418 255 0 255 0 0 75 0 75
-160 0 -160 0 0 105 0 105 140 0 140 0 0 70 0 70 -140 0 -140 0 0 100 0 100
160 0 160 0 0 75 0 75 -248 0 c-137 0 -252 -3 -255 -7z"/>
<path d="M7965 1138 c-4 -29 -5 -219 -3 -423 l3 -370 93 -3 92 -3 0 166 0 165
38 0 39 0 88 -161 c49 -89 94 -163 100 -165 6 -3 52 -3 102 -2 l91 3 -88 150
c-49 83 -89 160 -89 172 -1 16 11 27 44 43 52 25 109 88 126 137 6 19 9 63 7
98 -7 119 -92 207 -224 234 -32 6 -137 11 -235 11 l-178 0 -6 -52z m416 -147
c21 -21 29 -39 29 -65 0 -89 -38 -116 -163 -116 l-85 0 -1 105 -2 105 96 0
c93 0 98 -1 126 -29z"/>
<path d="M9967 1183 c-4 -3 -7 -195 -7 -425 l0 -418 255 0 255 0 0 75 0 75
-160 0 -160 0 0 105 0 105 140 0 140 0 0 70 0 70 -140 0 -140 0 0 100 0 100
160 0 160 0 0 75 0 75 -248 0 c-137 0 -252 -3 -255 -7z"/>
<path d="M1640 765 l0 -75 260 0 260 0 0 75 0 75 -260 0 -260 0 0 -75z"/>
</g>
</svg>
